<svg xmlns="http://www.w3.org/2000/svg" xmlns:xlink="http://www.w3.org/1999/xlink" version="1.1" id="Layer_1" x="0px" y="0px" width="300px" height="300px" viewBox="0 0 300 300" enable-background="new 0 0 300 300" xml:space="preserve">
<g>
	<g>
		<path fill="#2A94F4" d="M150,275.999c-5.2,0-9.417-4.216-9.417-9.417v-80.178c0-5.201,4.217-9.417,9.417-9.417    s9.417,4.216,9.417,9.417v80.178C159.417,271.783,155.2,275.999,150,275.999z"/>
	</g>
	<g>
		<path fill="#2A94F4" d="M238.011,251.539H61.989c-5.201,0-9.418-4.216-9.418-9.417c0-5.201,4.217-9.417,9.418-9.417h176.021    c5.201,0,9.418,4.216,9.418,9.417C247.429,247.323,243.212,251.539,238.011,251.539z"/>
	</g>
	<g>
		<g>
			<path opacity="0.6" fill-rule="evenodd" clip-rule="evenodd" fill="#FFBE55" d="M249.67,62.734c0,3.635-1.285,7.167-3.71,10.498     c-0.378,0.503-0.757,1.009-1.185,1.513c-0.606,0.731-1.263,1.44-1.969,2.145c-0.201,0.203-0.403,0.378-0.605,0.581     c-0.201,0.202-0.429,0.377-0.656,0.581c-0.581,0.53-1.186,1.035-1.816,1.539c-0.53,0.429-1.085,0.859-1.641,1.26     c-0.579,0.431-1.158,0.833-1.766,1.239c-1.235,0.831-2.524,1.614-3.887,2.397c0,0-0.024,0-0.024,0.024     c-0.833,0.479-1.716,0.935-2.623,1.413c-0.885,0.456-1.792,0.91-2.727,1.362c-1.186,0.557-2.422,1.112-3.684,1.641     c-0.809,0.328-1.616,0.658-2.448,0.985c-0.857,0.352-1.715,0.682-2.599,0.982c-0.857,0.328-1.768,0.658-2.675,0.961     c-0.907,0.3-1.817,0.604-2.777,0.907c-0.451,0.151-0.932,0.302-1.413,0.428c-0.451,0.152-0.931,0.304-1.437,0.43     c-0.959,0.303-1.942,0.579-2.927,0.833c-1.968,0.556-4.013,1.059-6.105,1.539c-1.943,0.43-3.912,0.858-5.906,1.261     c-1.007,0.203-2.018,0.405-3.028,0.582c-1.035,0.201-2.067,0.379-3.104,0.556c-0.453,0.049-0.883,0.125-1.311,0.201     c-0.455,0.075-0.885,0.151-1.338,0.202c-1.237,0.201-2.473,0.377-3.709,0.529c-1.188,0.152-2.397,0.304-3.635,0.454     c-0.704,0.076-1.437,0.178-2.169,0.228c-2.095,0.254-4.24,0.454-6.408,0.631c-0.151,0.024-0.33,0.024-0.481,0.024     c-1.74,0.152-3.506,0.279-5.298,0.354c-0.276,0.024-0.58,0.024-0.858,0.052c-0.961,0.049-1.943,0.1-2.902,0.152     c-0.278,0-0.554,0.023-0.831,0.023c-1.036,0.051-2.044,0.077-3.08,0.101c-1.136,0.025-2.297,0.077-3.456,0.077     c-1.163,0.024-2.321,0.024-3.482,0.024s-2.321,0-3.481-0.024c-1.16,0-2.32-0.052-3.457-0.077     c-1.035-0.024-2.044-0.05-3.079-0.101c-0.276,0-0.555-0.023-0.832-0.023c-0.96-0.052-1.944-0.103-2.902-0.152     c-0.277-0.027-0.581-0.027-0.859-0.052c-1.79-0.075-3.557-0.202-5.298-0.354c-0.152,0-0.328,0-0.479-0.024     c-2.171-0.177-4.314-0.377-6.41-0.631c-0.731-0.049-1.437-0.152-2.144-0.228c-1.234-0.15-2.447-0.302-3.658-0.454     c-1.237-0.152-2.473-0.328-3.709-0.529c-0.455-0.051-0.885-0.127-1.339-0.202c-0.428-0.076-0.855-0.152-1.312-0.201     c-1.035-0.176-2.069-0.354-3.102-0.556c-1.01-0.177-2.021-0.379-3.029-0.582c-1.994-0.402-3.963-0.831-5.905-1.261     c-2.095-0.479-4.139-0.983-6.105-1.539c-0.985-0.254-1.969-0.53-2.928-0.833c-0.506-0.126-0.985-0.278-1.437-0.43     c-0.48-0.125-0.961-0.277-1.414-0.428c-0.96-0.303-1.869-0.607-2.776-0.907c-0.909-0.304-1.792-0.634-2.675-0.961     c-0.883-0.301-1.741-0.631-2.599-0.982c-0.832-0.328-1.641-0.658-2.448-0.985c-1.262-0.529-2.498-1.084-3.684-1.641     c-0.935-0.453-1.842-0.907-2.727-1.362c-0.907-0.478-1.79-0.933-2.623-1.413c0-0.024-0.025-0.024-0.025-0.024     c-1.361-0.783-2.65-1.566-3.886-2.397c-0.606-0.406-1.187-0.808-1.766-1.239c-0.556-0.401-1.11-0.831-1.641-1.26     c-0.631-0.48-1.237-1.009-1.816-1.539c-0.431-0.378-0.833-0.757-1.236-1.161c-0.757-0.756-1.464-1.489-2.096-2.269     c-0.378-0.456-0.756-0.909-1.083-1.389c-2.424-3.331-3.71-6.863-3.71-10.498c0-21.398,44.611-38.732,99.67-38.732     S249.67,41.336,249.67,62.734z"/>
			<path opacity="0.6" fill-rule="evenodd" clip-rule="evenodd" fill="#FFBE55" d="M67.563,84.486     c-1.388-0.759-2.674-1.566-3.886-2.397C64.913,82.92,66.202,83.703,67.563,84.486z"/>
			<path opacity="0.6" fill-rule="evenodd" clip-rule="evenodd" fill="#FFBE55" d="M236.322,82.089     c-1.212,0.831-2.498,1.638-3.887,2.397C233.798,83.703,235.087,82.92,236.322,82.089z"/>
			<path fill-rule="evenodd" clip-rule="evenodd" fill="#FFBE55" d="M249.67,62.734v20.994c0,2.17-0.454,4.315-1.362,6.386     c-2.574,6.056-8.755,11.631-17.688,16.375c-18.093,9.688-47.462,15.972-80.619,15.972s-62.527-6.284-80.619-15.972     c-8.934-4.744-15.114-10.32-17.688-16.375c-0.909-2.07-1.362-4.215-1.362-6.386V62.734c0,3.635,1.286,7.167,3.71,10.498     c0.327,0.479,0.705,0.933,1.083,1.389c0.632,0.78,1.339,1.513,2.096,2.269c0.403,0.404,0.806,0.783,1.236,1.161     c0.579,0.53,1.186,1.059,1.816,1.539c0.53,0.429,1.085,0.859,1.641,1.26c0.579,0.431,1.159,0.833,1.766,1.239     c1.212,0.831,2.498,1.638,3.886,2.397c0,0,0.025,0,0.025,0.024c0.833,0.479,1.716,0.935,2.623,1.413     c0.885,0.456,1.792,0.91,2.727,1.362c1.186,0.557,2.422,1.112,3.684,1.641c0.808,0.328,1.616,0.658,2.448,0.985     c0.857,0.352,1.716,0.682,2.599,0.982c0.883,0.328,1.766,0.658,2.675,0.961c0.907,0.3,1.816,0.604,2.776,0.907     c0.453,0.151,0.934,0.302,1.414,0.428c0.451,0.152,0.931,0.304,1.437,0.43c0.959,0.303,1.942,0.579,2.928,0.833     c1.967,0.556,4.011,1.059,6.105,1.539c1.942,0.43,3.911,0.858,5.905,1.261c1.008,0.203,2.02,0.405,3.029,0.582     c1.032,0.201,2.066,0.379,3.102,0.556c0.456,0.049,0.884,0.125,1.312,0.201c0.454,0.075,0.884,0.151,1.339,0.202     c1.236,0.201,2.472,0.377,3.709,0.529c1.211,0.152,2.424,0.304,3.658,0.454c0.707,0.076,1.412,0.178,2.144,0.228     c2.096,0.254,4.239,0.454,6.41,0.631c0.151,0.024,0.327,0.024,0.479,0.024c1.741,0.152,3.508,0.279,5.298,0.354     c0.278,0.024,0.582,0.024,0.859,0.052c0.958,0.049,1.942,0.1,2.902,0.152c0.277,0,0.556,0.023,0.832,0.023     c1.035,0.051,2.044,0.077,3.079,0.101c1.137,0.025,2.297,0.077,3.457,0.077c1.16,0.024,2.32,0.024,3.481,0.024     s2.319,0,3.482-0.024c1.159,0,2.32-0.052,3.456-0.077c1.036-0.024,2.044-0.05,3.08-0.101c0.277,0,0.553-0.023,0.831-0.023     c0.959-0.052,1.941-0.103,2.902-0.152c0.278-0.027,0.582-0.027,0.858-0.052c1.792-0.075,3.558-0.202,5.298-0.354     c0.151,0,0.33,0,0.481-0.024c2.168-0.177,4.313-0.377,6.408-0.631c0.732-0.049,1.465-0.152,2.169-0.228     c1.237-0.15,2.447-0.302,3.635-0.454c1.236-0.152,2.472-0.328,3.709-0.529c0.453-0.051,0.883-0.127,1.338-0.202     c0.428-0.076,0.857-0.152,1.311-0.201c1.036-0.176,2.068-0.354,3.104-0.556c1.011-0.177,2.021-0.379,3.028-0.582     c1.994-0.402,3.963-0.831,5.906-1.261c2.093-0.479,4.138-0.983,6.105-1.539c0.984-0.254,1.968-0.53,2.927-0.833     c0.506-0.126,0.985-0.278,1.437-0.43c0.481-0.125,0.962-0.277,1.413-0.428c0.96-0.303,1.87-0.607,2.777-0.907     c0.907-0.304,1.817-0.634,2.675-0.961c0.884-0.301,1.741-0.631,2.599-0.982c0.832-0.328,1.64-0.658,2.448-0.985     c1.262-0.529,2.498-1.084,3.684-1.641c0.935-0.453,1.842-0.907,2.727-1.362c0.907-0.478,1.79-0.933,2.623-1.413     c0-0.024,0.024-0.024,0.024-0.024c1.389-0.759,2.675-1.566,3.887-2.397c0.607-0.406,1.187-0.808,1.766-1.239     c0.556-0.401,1.11-0.831,1.641-1.26c0.631-0.504,1.235-1.009,1.816-1.539c0.228-0.204,0.455-0.378,0.656-0.581     c0.202-0.202,0.404-0.378,0.605-0.581c0.731-0.705,1.389-1.414,1.969-2.145c0.428-0.503,0.833-1.009,1.185-1.513     C248.385,69.901,249.67,66.369,249.67,62.734z"/>
			<path fill-rule="evenodd" clip-rule="evenodd" fill="#FFBE55" d="M67.563,84.486c-1.388-0.759-2.674-1.566-3.886-2.397     C64.913,82.92,66.202,83.703,67.563,84.486z"/>
			<path fill-rule="evenodd" clip-rule="evenodd" fill="#FFBE55" d="M236.322,82.089c-1.212,0.831-2.498,1.638-3.887,2.397     C233.798,83.703,235.087,82.92,236.322,82.089z"/>
			<path opacity="0.6" fill-rule="evenodd" clip-rule="evenodd" fill="#FFBE55" d="M249.67,96.497c0,3.633-1.285,7.166-3.71,10.496     c-1.462,2.045-3.354,4.013-5.626,5.88c-15.896,13.198-50.364,22.329-90.334,22.329c-39.968,0-74.438-9.131-90.334-22.329     c-2.271-1.867-4.165-3.835-5.626-5.88c-2.424-3.33-3.71-6.863-3.71-10.496c0-2.17,0.453-4.315,1.362-6.383     c2.574,6.056,8.755,11.631,17.688,16.375c18.092,9.688,47.462,15.972,80.619,15.972s62.526-6.284,80.619-15.972     c8.934-4.744,15.114-10.32,17.688-16.375C249.216,92.181,249.67,94.326,249.67,96.497z"/>
			<path opacity="0.6" fill-rule="evenodd" clip-rule="evenodd" fill="#FFBE55" d="M67.563,84.486     c-1.388-0.759-2.674-1.566-3.886-2.397C64.913,82.92,66.202,83.703,67.563,84.486z"/>
			<path opacity="0.6" fill-rule="evenodd" clip-rule="evenodd" fill="#FFBE55" d="M236.322,82.089     c-1.212,0.831-2.498,1.638-3.887,2.397C233.798,83.703,235.087,82.92,236.322,82.089z"/>
			<path fill-rule="evenodd" clip-rule="evenodd" fill="#FFBE55" d="M249.67,96.497v20.993c0,1.993-0.379,3.962-1.16,5.88     c0.023,0,0.023,0,0,0.026c-7.293,18.596-48.624,32.827-98.51,32.827s-91.217-14.231-98.51-32.827     c-0.024-0.026-0.024-0.026,0-0.026c-0.783-1.917-1.16-3.887-1.16-5.88V96.497c0,3.633,1.286,7.166,3.71,10.496     c1.461,2.045,3.354,4.013,5.626,5.88c15.896,13.198,50.366,22.329,90.334,22.329c39.97,0,74.438-9.131,90.334-22.329     c2.271-1.867,4.164-3.835,5.626-5.88C248.385,103.662,249.67,100.129,249.67,96.497z"/>
			<path opacity="0.6" fill-rule="evenodd" clip-rule="evenodd" fill="#FFBE55" d="M249.67,129.248c0,3.633-1.285,7.19-3.71,10.523     c-11.784,16.274-50.287,28.209-95.96,28.209s-84.177-11.935-95.96-28.209c-2.424-3.333-3.71-6.89-3.71-10.523     c0-1.995,0.377-3.96,1.16-5.853c7.293,18.596,48.624,32.827,98.51,32.827s91.217-14.231,98.51-32.827     C249.291,125.288,249.67,127.253,249.67,129.248z"/>
			<path fill-rule="evenodd" clip-rule="evenodd" fill="#FFBE55" d="M249.67,129.248v21.019c0,21.373-44.611,38.707-99.67,38.707     s-99.67-17.334-99.67-38.707v-21.019c0,3.633,1.286,7.19,3.71,10.523c11.783,16.274,50.287,28.209,95.96,28.209     s84.176-11.935,95.96-28.209C248.385,136.438,249.67,132.881,249.67,129.248z"/>
		</g>
		<g>
			<circle fill-rule="evenodd" clip-rule="evenodd" fill="#2A94F4" cx="133.44" cy="112.656" r="5.203"/>
			<circle fill-rule="evenodd" clip-rule="evenodd" fill="#2A94F4" cx="150" cy="112.656" r="5.204"/>
			<circle fill-rule="evenodd" clip-rule="evenodd" fill="#2A94F4" cx="166.559" cy="112.656" r="5.205"/>
		</g>
		<g>
			<circle fill-rule="evenodd" clip-rule="evenodd" fill="#2A94F4" cx="133.44" cy="145.687" r="5.203"/>
			<circle fill-rule="evenodd" clip-rule="evenodd" fill="#2A94F4" cx="150" cy="145.687" r="5.204"/>
			<circle fill-rule="evenodd" clip-rule="evenodd" fill="#2A94F4" cx="166.559" cy="145.687" r="5.205"/>
		</g>
		<g>
			<circle fill-rule="evenodd" clip-rule="evenodd" fill="#2A94F4" cx="133.44" cy="178.719" r="5.203"/>
			<circle fill-rule="evenodd" clip-rule="evenodd" fill="#2A94F4" cx="150" cy="178.719" r="5.204"/>
			<circle fill-rule="evenodd" clip-rule="evenodd" fill="#2A94F4" cx="166.559" cy="178.719" r="5.205"/>
		</g>
	</g>
	<path fill="#FFBE55" d="M169.941,256.688c0,2.968-2.407,5.375-5.375,5.375h-29.133c-2.968,0-5.375-2.406-5.375-5.375v-29.133   c0-2.968,2.407-5.375,5.375-5.375h29.133c2.968,0,5.375,2.406,5.375,5.375V256.688z"/>
</g>
</svg>